<?xml version="1.0" standalone="no"?>
<svg viewBox="0 0 200 200" xmlns="http://www.w3.org/2000/svg">
  <path fill="#0000AC" d="M32,-57.3C41.4,-50,48.9,-41.3,58,-31.5C67.1,-21.7,77.8,-10.9,78.7,0.5C79.5,11.8,70.4,23.6,63.2,36.8C56.1,50,51,64.7,40.8,70.9C30.6,77,15.3,74.7,-0.5,75.6C-16.4,76.5,-32.7,80.7,-45.3,75.9C-57.8,71.1,-66.6,57.3,-74.3,43.1C-82.1,29,-88.8,14.5,-85.4,1.9C-82.1,-10.6,-68.6,-21.2,-58.7,-31.7C-48.8,-42.1,-42.5,-52.4,-33.3,-59.8C-24.1,-67.3,-12.1,-71.9,-0.4,-71.2C11.3,-70.5,22.6,-64.6,32,-57.3Z" transform="translate(100 100)" />
</svg>
